Coordinates
version=1
nRows=7
nColumns=63
inDegrees=yes

Units are S.I. units (second, meters, Newtons, ...)
If the header above contains a line with 'inDegrees', this indicates whether rotational values are in degrees (yes) or radians (no).

endheader
time	pelvis_tilt	pelvis_list	pelvis_rotation	pelvis_tx	pelvis_ty	pelvis_tz	hip_flexion_r	hip_adduction_r	hip_rotation_r	knee_angle_r	knee_angle_r_beta	ankle_angle_r	subtalar_angle_r	mtp_angle_r	hip_flexion_l	hip_adduction_l	hip_rotation_l	knee_angle_l	knee_angle_l_beta	ankle_angle_l	subtalar_angle_l	mtp_angle_l	L5_S1_Flex_Ext	L5_S1_Lat_Bending	L5_S1_axial_rotation	L4_L5_Flex_Ext	L4_L5_Lat_Bending	L4_L5_axial_rotation	L3_L4_Flex_Ext	L3_L4_Lat_Bending	L3_L4_axial_rotation	L2_L3_Flex_Ext	L2_L3_Lat_Bending	L2_L3_axial_rotation	L1_L2_Flex_Ext	L1_L2_Lat_Bending	L1_L2_axial_rotation	L1_T12_Flex_Ext	L1_T12_Lat_Bending	L1_T12_axial_rotation	Abs_r3	Abs_r2	Abs_r1	Abs_t1	Abs_t2	neck_flexion	neck_bending	neck_rotation	arm_flex_r	arm_add_r	arm_rot_r	elbow_flex_r	pro_sup_r	wrist_flex_r	wrist_dev_r	arm_flex_l	arm_add_l	arm_rot_l	elbow_flex_l	pro_sup_l	wrist_flex_l	wrist_dev_l
      2.18333333	      1.19734091	     -0.22395001	    107.99748567	      0.27610012	      0.90221204	      0.70686354	     -7.51621158	      4.20144144	      4.70936850	      0.70864882	      0.01236826	     22.72829120	     -6.92896227	      0.00000000	     -2.83120836	     -4.04311991	     15.52568492	      7.29416768	      0.12730724	     26.11235666	     -7.57318888	      0.00000000	     -0.32959989	      0.91030644	      2.67316171	     -0.61209996	      1.21070757	      2.84023431	     -0.54149967	      2.21331908	      2.84023431	     -0.37669972	      2.21331908	      2.33901649	     -0.30606646	      1.85629689	      2.17194389	     -0.18833338	      1.41006468	      2.00487128	     -2.35429909	     10.29756852	     14.86732347	      0.00000000	      0.00000000	     17.30731236	    -20.51476853	     -6.89882385	      4.20895451	    -12.90696526	    137.83106855	      0.60832984	      2.97767354	     -8.37934789	    -10.07031859	     52.20470199	    -15.72426984	    -18.33863578	    149.85683330	     81.63927617	     -9.32043380	     -2.29605775
      2.20000000	      1.06591148	     -0.39522495	    107.38487949	      0.27709738	      0.90178113	      0.70790842	     -7.41399224	      3.93159154	      5.42652625	      0.74677058	      0.01303361	     22.41712851	     -7.12354617	      0.00000000	     -2.73407023	     -3.81134552	     15.52781774	      7.33944900	      0.12809755	     25.84517498	     -8.16544041	      0.00000000	     -0.34582820	      0.89689752	      2.82845814	     -0.64223755	      1.19287370	      3.00523677	     -0.56816115	      2.18071663	      3.00523677	     -0.39524705	      2.18071663	      2.47490087	     -0.32113607	      1.82895342	      2.29812224	     -0.19760623	      1.38929426	      2.12134360	     -2.47021624	     10.14588414	     15.73103563	      0.00000000	      0.00000000	     16.44938560	    -20.92960950	     -8.65585751	      4.49275138	    -12.82783172	    138.64057330	      0.57693342	      3.21579109	     -9.08870954	     -9.93911048	     52.09091138	    -15.49230081	    -18.28653720	    149.85954798	     80.61263312	     -8.50816758	     -3.34850762
      2.21666667	      0.92351418	     -0.43761912	    107.27684146	      0.27788728	      0.90158086	      0.70944670	     -7.38538937	      3.77858706	      5.45984334	      0.74031316	      0.01292090	     22.27033115	     -7.10956533	      0.00000000	     -2.57951950	     -3.66045912	     15.62046296	      7.54415767	      0.13167039	     25.72149543	     -8.18015523	      0.00000000	     -0.38747107	      0.89561758	      2.88052002	     -0.71957252	      1.19117139	      3.06055252	     -0.63657622	      2.17760459	      3.06055252	     -0.44284069	      2.17760459	      2.52045502	     -0.35980564	      1.82634338	      2.34042252	     -0.22140097	      1.38731164	      2.16039002	     -2.76766711	     10.13140523	     16.02058821	      0.00000000	      0.00000000	     16.00052951	    -20.84135615	     -8.98594974	      4.96763289	    -12.79638751	    138.81735515	      0.56596233	      3.30552312	     -9.27832974	     -9.96713835	     52.00153465	    -15.30895736	    -18.56140294	    149.87228775	     80.48206006	     -8.41469265	     -3.67955314
      2.23333333	      0.84235005	     -0.58715193	    106.45122140	      0.27900462	      0.90139377	      0.71020595	     -7.20904073	      3.53262451	      6.05289979	      0.70016542	      0.01222019	     22.48733581	     -6.67922457	      0.00000000	     -2.37694328	     -3.42650467	     15.31502872	      7.86693017	      0.13730383	     25.61629838	     -9.11420082	      0.00000000	     -0.40116318	      0.89592236	      3.03510049	     -0.74500014	      1.19157674	      3.22479427	     -0.65907099	      2.17834563	      3.22479427	     -0.45848940	      2.17834563	      2.65571293	     -0.37252013	      1.82696488	      2.46601915	     -0.22922464	      1.38778374	      2.27632537	     -2.86546847	     10.13485292	     16.88031841	      0.00000000	      0.00000000	     15.18858818	    -21.83241056	    -10.39761295	      5.39964213	    -12.77956786	    141.02620243	      0.49378820	      3.79024398	    -10.74918362	     -9.63118581	     51.74637759	    -15.18967573	    -18.81612477	    149.87235189	     80.02411505	     -7.22576592	     -4.39659436
      2.25000000	      0.69567212	     -0.76799952	    106.03568219	      0.28011058	      0.90124241	      0.71123323	     -6.96713321	      3.28717467	      6.35907136	      0.65944534	      0.01150949	     22.78323498	     -6.33298455	      0.00000000	     -2.00106391	     -3.18288444	     15.08299395	      8.28796870	      0.14465234	     25.71660696	     -9.41612160	      0.00000000	     -0.41730592	      0.88704453	      3.09042313	     -0.77497882	      1.17976922	      3.28357458	     -0.68559189	      2.15676006	      3.28357458	     -0.47693893	      2.15676006	      2.70412024	     -0.38751027	      1.80886120	      2.51096879	     -0.23844860	      1.37403197	      2.31781735	     -2.98077443	     10.03442508	     17.18800633	      0.00000000	      0.00000000	     15.08279254	    -22.32478779	    -10.60086110	      5.95629603	    -12.74191506	    142.19504990	      0.45861083	      4.23014811	    -11.42804374	     -9.77794822	     51.59213142	    -15.39118329	    -19.05217770	    149.87470158	     80.42607950	     -6.94376219	     -4.48892816
      2.26666667	      0.65202074	     -0.82267416	    105.94888084	      0.28067308	      0.90145529	      0.71187365	     -6.85343353	      3.23362428	      6.42361946	      0.58735280	      0.01025124	     22.92971309	     -6.30217711	      0.00000000	     -1.87178846	     -3.13598696	     15.07894509	      8.28665496	      0.14462941	     25.78511399	     -9.42917220	      0.00000000	     -0.43071778	      0.89064767	      3.09379563	     -0.79988598	      1.18456140	      3.28715785	     -0.70762623	      2.16552074	      3.28715785	     -0.49226735	      2.16552074	      2.70707117	     -0.39996453	      1.81620873	      2.51370895	     -0.24611214	      1.37961324	      2.32034672	     -3.07657401	     10.07518456	     17.20676313	      0.00000000	      0.00000000	     15.05956773	    -22.40576387	    -10.59071009	      6.39405965	    -12.70656416	    142.29119748	      0.40501390	      4.28450331	    -11.55202266	     -9.83607083	     51.46700257	    -15.43282976	    -18.84493995	    149.86957437	     80.52804953	     -6.83667119	     -4.49985636
      2.28333333	      0.45686196	     -1.13028344	    104.84343971	      0.28270205	      0.90137858	      0.71211446	     -6.44731371	      2.82926533	      7.14373398	      0.60353334	      0.01053364	     23.42004137	     -5.31270879	      0.00000000	     -1.49017541	     -2.81253753	     13.83455933	      8.64783959	      0.15093327	     25.99064293	     -9.48315280	      0.00000000	     -0.42983935	      0.86605922	      3.24032600	     -0.79825465	      1.15185877	      3.44284638	     -0.70618306	      2.10573640	      3.44284638	     -0.49126339	      2.10573640	      2.83528525	     -0.39914882	      1.76606797	      2.63276488	     -0.24561020	      1.34152574	      2.43024450	     -3.07029947	      9.79703516	     18.02172112	      0.00000000	      0.00000000	     15.50571933	    -23.37628795	    -10.41741529	      6.99045799	    -12.67290671	    145.99951476	      0.38237779	      5.96271489	    -14.19460665	     -9.67605572	     51.43021075	    -16.00951479	    -19.17287454	    149.87240088	     82.78817624	     -6.93226869	     -3.71258437
